<svg width="177" height="27" viewBox="0 0 177 27" fill="none" xmlns="http://www.w3.org/2000/svg">
<path d="M0 13.185C0 17.2819 2.97168 20.9749 8.28032 20.9749C12.5215 20.9749 14.8584 18.0898 14.8584 18.0898L12.8677 14.743C12.8677 14.743 10.9058 16.6761 8.77079 16.6761C6.92431 16.6761 5.02013 15.6663 5.02013 13.1273C5.02013 11.1366 6.28958 9.54978 8.39573 9.54978C9.00161 9.54978 9.54978 9.72289 9.54978 10.1845V10.9635H13.8775V8.91505C13.8775 6.23188 10.473 5.42405 8.39573 5.42405C2.76972 5.42405 0 9.26127 0 13.185Z" fill="white"/>
<path d="M15.7499 13.2427C15.7499 17.8878 19.4717 20.9749 24.1456 20.9749C28.8195 20.9749 32.5413 17.8878 32.5413 13.2427C32.5413 8.56884 28.8195 5.42405 24.1168 5.42405C19.4717 5.42405 15.7499 8.56884 15.7499 13.2427ZM20.77 13.2427C20.77 10.9923 22.328 9.57863 24.1456 9.57863C25.9632 9.57863 27.5212 10.9923 27.5212 13.2427C27.5212 15.4643 25.9632 16.8203 24.1456 16.8203C22.328 16.8203 20.77 15.4643 20.77 13.2427Z" fill="white"/>
<path d="M35.2245 18.5225C35.2245 19.994 35.8592 20.6287 37.3306 20.6287H41.9469V16.4452H40.8505C40.4466 16.4452 40.2158 16.2144 40.2158 15.8105V2.10615C40.2158 0.634729 39.581 0 38.1096 0H33.4934V4.18344H34.5898C34.9937 4.18344 35.2245 4.41425 35.2245 4.81817V18.5225Z" fill="white"/>
<path d="M43.2488 13.2427C43.2488 17.8878 46.9706 20.9749 51.6445 20.9749C56.3184 20.9749 60.0402 17.8878 60.0402 13.2427C60.0402 8.56884 56.3184 5.42405 51.6156 5.42405C46.9706 5.42405 43.2488 8.56884 43.2488 13.2427ZM48.2689 13.2427C48.2689 10.9923 49.8269 9.57863 51.6445 9.57863C53.4621 9.57863 55.0201 10.9923 55.0201 13.2427C55.0201 15.4643 53.4621 16.8203 51.6445 16.8203C49.8269 16.8203 48.2689 15.4643 48.2689 13.2427Z" fill="white"/>
<path d="M63.036 20.6287H68.0273V15.0027C68.0273 14.1948 68.1139 13.5313 68.287 12.9831C69.0082 10.7615 70.9413 10.3865 72.1242 10.3865C72.7301 10.3865 73.134 10.473 73.134 10.473V5.5683C73.134 5.5683 72.8455 5.5106 72.557 5.5106C70.3354 5.5106 68.4601 7.18397 67.8253 9.20356H67.7676C67.7676 9.20356 67.8253 8.91505 67.8253 8.45343V7.67445C67.8253 6.31843 67.0752 5.77026 65.7192 5.77026H61.3049V9.9537H62.4013C62.8052 9.9537 63.036 10.1845 63.036 10.5884V20.6287Z" fill="white"/>
<path d="M73.9878 13.185C73.9878 17.1377 76.8441 20.9749 82.1527 20.9749C86.1053 20.9749 88.5 18.6091 88.5 18.6091L86.5093 15.2623C86.5093 15.2623 84.6916 16.8203 82.5566 16.8203C80.9698 16.8203 79.4695 15.9836 79.0945 14.1083H88.4711C88.4711 14.1083 88.5865 13.0985 88.5865 12.608C88.5865 8.48228 86.1053 5.42405 81.7199 5.42405C76.9306 5.42405 73.9878 8.8285 73.9878 13.185ZM79.2387 11.0789C79.5561 9.98255 80.2774 9.17471 81.7199 9.17471C82.7586 9.17471 83.4799 10.1557 83.4799 11.0789H79.2387Z" fill="white"/>
<path d="M90.273 13.185C90.273 17.8013 92.9273 20.9749 96.9665 20.9749C100.025 20.9749 101.265 18.9553 101.265 18.9553H101.323C101.323 18.9553 101.323 19.0996 101.323 19.215C101.323 19.9074 101.842 20.6287 103.256 20.6287H107.699V16.4452H106.603C106.199 16.4452 105.968 16.2144 105.968 15.8105V2.10615C105.968 0.634729 105.333 0 103.862 0H99.2458V4.18344H100.342C100.746 4.18344 100.977 4.41425 100.977 4.81817V5.79911C100.977 6.17418 101.006 6.46269 101.006 6.46269H100.948C100.948 6.46269 100.054 5.42405 97.0531 5.42405C93.1004 5.42405 90.273 8.48228 90.273 13.185ZM98.2071 16.8492C96.476 16.8492 95.2931 15.4066 95.2931 13.185C95.2931 10.9058 96.6491 9.63633 98.2071 9.63633C100.169 9.63633 101.121 11.3963 101.121 13.185C101.121 15.7528 99.7074 16.8492 98.2071 16.8492Z" fill="white"/>
<path d="M117.947 20.6287H122.62V20.2825C122.62 19.8208 122.592 19.4458 122.592 19.4458H122.649C122.649 19.4458 123.977 20.9749 126.717 20.9749C130.67 20.9749 133.642 17.9167 133.642 13.2139C133.642 8.59769 130.987 5.42405 126.948 5.42405C124.323 5.42405 122.938 6.86661 122.938 6.86661H122.88C122.88 6.86661 122.938 6.34729 122.938 5.59715V2.10615C122.938 0.634729 122.303 0 120.832 0H116.216V4.18344H117.312C117.716 4.18344 117.947 4.41425 117.947 4.81817V20.6287ZM122.794 13.3005C122.794 10.7327 124.207 9.63633 125.708 9.63633C127.439 9.63633 128.622 11.0789 128.622 13.3005C128.622 15.5797 127.266 16.8492 125.708 16.8492C123.746 16.8492 122.794 15.0892 122.794 13.3005Z" fill="white"/>
<path d="M135.742 21.5808L133.953 25.1006C133.953 25.1006 135.569 26.6875 138.136 26.6875C140.502 26.6875 143.07 25.5046 144.339 22.2155L148.84 10.4153C148.984 10.0403 149.186 9.9537 149.533 9.9537H150.081V5.77026H146.359C145.58 5.77026 144.801 6.20303 144.599 6.98202L142.955 12.9831C142.724 13.7909 142.464 15.2912 142.464 15.2912H142.406C142.406 15.2912 142.147 13.7909 141.858 12.9831L139.666 6.98202C139.377 6.20303 138.771 5.77026 137.934 5.77026H134.299V9.9537H134.847C135.194 9.9537 135.309 10.0403 135.482 10.4153L140.185 20.6287L140.012 21.0614C139.521 22.3021 138.598 22.5329 137.79 22.5329C136.607 22.5329 135.742 21.5808 135.742 21.5808Z" fill="white"/>
<path d="M152.661 15.1469C152.661 20.1382 157.248 20.7729 159.614 20.7729C160.422 20.7729 160.97 20.6864 160.97 20.6864V16.3587C160.97 16.3587 160.711 16.3875 160.307 16.3875C159.355 16.3875 157.652 16.1567 157.652 14.4834V9.66518H160.768V5.77026H157.652V1.75993H152.805V5.77026H150.757V9.66518H152.661V15.1469Z" fill="white"/>
<path d="M162.401 13.185C162.401 17.1377 165.258 20.9749 170.566 20.9749C174.519 20.9749 176.913 18.6091 176.913 18.6091L174.923 15.2623C174.923 15.2623 173.105 16.8203 170.97 16.8203C169.383 16.8203 167.883 15.9836 167.508 14.1083H176.885C176.885 14.1083 177 13.0985 177 12.608C177 8.48228 174.519 5.42405 170.133 5.42405C165.344 5.42405 162.401 8.8285 162.401 13.185ZM167.652 11.0789C167.97 9.98255 168.691 9.17471 170.133 9.17471C171.172 9.17471 171.893 10.1557 171.893 11.0789H167.652Z" fill="white"/>
</svg>
