<svg width="206" height="206" viewBox="0 0 206 206" fill="none" xmlns="http://www.w3.org/2000/svg">
<path fill-rule="evenodd" clip-rule="evenodd" d="M56.9787 206C75.8818 206 92.6348 196.491 103 181.852C113.365 196.491 130.118 206 149.021 206C180.49 206 206 179.649 206 147.143C206 129.564 198.539 113.785 186.71 103C198.539 92.2152 206 76.4362 206 58.8571C206 26.3512 180.49 0 149.021 0C130.118 0 113.365 9.50852 103 24.1479C92.6348 9.50852 75.8818 0 56.9787 0C25.5102 0 0 26.3512 0 58.8571C0 76.4362 7.46072 92.2152 19.2898 103C7.46072 113.785 0 129.564 0 147.143C0 179.649 25.5102 206 56.9787 206ZM56.9787 88.2857C72.713 88.2857 85.4681 75.1101 85.4681 58.8571C85.4681 42.6042 72.713 29.4286 56.9787 29.4286C41.2445 29.4286 28.4894 42.6042 28.4894 58.8571C28.4894 75.1101 41.2445 88.2857 56.9787 88.2857ZM177.511 58.8571C177.511 75.1101 164.756 88.2857 149.021 88.2857C133.287 88.2857 120.532 75.1101 120.532 58.8571C120.532 42.6042 133.287 29.4286 149.021 29.4286C164.756 29.4286 177.511 42.6042 177.511 58.8571ZM120.532 147.143C120.532 130.89 133.287 117.714 149.021 117.714C164.756 117.714 177.511 130.89 177.511 147.143C177.511 163.396 164.756 176.571 149.021 176.571C133.287 176.571 120.532 163.396 120.532 147.143ZM28.4894 147.143C28.4894 130.89 41.2445 117.714 56.9787 117.714C72.713 117.714 85.4681 130.89 85.4681 147.143C85.4681 163.396 72.713 176.571 56.9787 176.571C41.2445 176.571 28.4894 163.396 28.4894 147.143Z" fill="white"/>
</svg>
